# xmcd
#
# Track frame offsets: 
#        150
#        11350
#        19277
#        27915
#        37047
#        48150
#        56265
#        64857
#        77552
#        85605
#        94567
#        104842
#        116362
#        129700
#        138912
#        152797
#        164915
#        175100
#        188722
#        201097
#        213115
#
# Disc length: 3039 seconds
#
# Revision: 0
# Processed by: cddbd v1.5.2PL0 Copyright (c) Steve Scherf et al.
# Submitted via: ExactAudioCopy v0.99pb4
#
DISCID=130bdd15
DTITLE=Various Artist - The Masters Box Disc 2
DYEAR=1995
DGENRE=Country
TTITLE0=Roger Miller- King of the Road
TTITLE1=Roger Miller- Dang Me
TTITLE2=Roger Miller- England Swings
TTITLE3=Roger Miller- Chug-A-Lug
TTITLE4=Roger Miller- Husbands and Wives
TTITLE5=Roger Miller- In the Summertime
TTITLE6=Roger Miller- You Can't Rollerskate in a Buffalo Herd
TTITLE7=Roger Miller- The Last Word in Lonesome Is Me
TTITLE8=Roger Miller- Do-Wacka-Do
TTITLE9=Roger Miller- My Uncle Used to Love Me But She Died
TTITLE10=Roger Miller- Engine Engine #9
TTITLE11=The Kendalls- Heaven's Just a Sin a Way
TTITLE12=The Kendalls- Pittsburg Stealers
TTITLE13=The Kendalls- Blue Blue Day
TTITLE14=The Kendalls- Crying Time
TTITLE15=The Kendalls- It Don't Feel Like Sinnin' To Me
TTITLE16=The Kendalls- I Had a Lovely Time
TTITLE17=The Kendalls- Heartaches By the Number
TTITLE18=The Kendalls- Pick Me Up on your Way Down
TTITLE19=The Kendalls- Sweet Desire
TTITLE20=The Kendalls- If You Let Him Drive you Crazy
EXTD=
EXTT0=
EXTT1=
EXTT2=
EXTT3=
EXTT4=
EXTT5=
EXTT6=
EXTT7=
EXTT8=
EXTT9=
EXTT10=
EXTT11=
EXTT12=
EXTT13=
EXTT14=
EXTT15=
EXTT16=
EXTT17=
EXTT18=
EXTT19=
EXTT20=
PLAYORDER=
